<?xml version="1.0" standalone="no"?>
<!DOCTYPE svg PUBLIC "-//W3C//DTD SVG 20010904//EN"
 "http://www.w3.org/TR/2001/REC-SVG-20010904/DTD/svg10.dtd">
<svg version="1.0" xmlns="http://www.w3.org/2000/svg"
 width="191.000000pt" height="228.000000pt" viewBox="0 0 191.000000 228.000000"
 preserveAspectRatio="xMidYMid meet">
<metadata>
Created by potrace 1.10, written by Peter Selinger 2001-2011
</metadata>
<g transform="translate(0.000000,228.000000) scale(0.100000,-0.100000)"
fill="#000000" stroke="none">
<path d="M820 2194 c-14 -2 -56 -9 -95 -15 -98 -16 -209 -54 -261 -90 -69 -47
-91 -95 -119 -265 -38 -225 -47 -442 -43 -1042 l3 -544 28 -23 c22 -19 27 -32
27 -68 0 -23 5 -48 12 -55 16 -16 180 -16 196 0 7 7 12 31 12 55 l0 43 390 0
390 0 0 -36 c0 -67 10 -74 108 -74 55 0 92 4 100 12 7 7 12 31 12 53 0 32 6
47 25 63 13 12 27 32 31 46 11 44 -3 1335 -15 1431 -23 169 -58 314 -86 351
-45 58 -148 107 -300 140 -67 15 -359 28 -415 18z m440 -49 c92 -21 206 -73
240 -109 l24 -27 -179 8 c-228 10 -531 10 -754 0 l-175 -7 25 26 c47 51 171
100 309 124 87 14 422 5 510 -15z m100 -154 l105 -6 11 -140 c6 -77 9 -143 7
-147 -2 -5 -234 -8 -515 -8 l-511 0 7 123 c11 192 0 176 114 180 176 5 675 5
782 -2z m-920 -136 c-5 -70 -10 -136 -10 -146 0 -15 -8 -19 -40 -19 -22 0 -40
4 -40 9 0 12 28 170 41 229 8 40 15 52 32 54 12 2 23 3 25 2 1 -1 -2 -59 -8
-129z m1105 108 c5 -15 45 -248 45 -265 0 -5 -18 -8 -40 -8 -37 0 -40 2 -40
28 0 15 -5 78 -10 140 -6 63 -8 117 -5 122 8 12 43 0 50 -17z m50 -304 c4 -5
9 -109 12 -230 l6 -219 -643 0 -643 0 6 220 c3 121 9 225 12 230 9 14 1242 13
1250 -1z m-1203 -690 c2 -121 1 -222 -1 -224 -2 -3 -16 2 -32 11 l-29 15 0
203 c0 111 3 206 7 209 3 4 17 7 29 7 l23 0 3 -221z m1218 -106 l0 -323 -391
0 -391 0 -195 90 c-108 49 -199 90 -204 90 -5 0 -9 25 -9 55 l0 55 209 0 c234
0 241 -2 241 -66 l0 -34 86 0 c64 0 85 3 81 13 -2 8 -23 11 -69 9 l-65 -4 -7
36 c-9 46 -47 76 -97 76 -29 0 -39 5 -44 20 -10 32 -54 60 -96 60 -51 0 -82
-15 -103 -51 -16 -27 -22 -29 -77 -29 l-59 0 0 158 c0 87 2 161 4 163 2 2 270
4 595 4 l591 0 0 -322z m-898 28 l33 -29 -84 -4 c-45 -1 -85 0 -88 4 -2 4 7
19 21 33 34 34 77 33 118 -4z m-354 -161 c33 -18 162 -79 257 -120 l95 -42 -2
-177 -3 -176 -167 -3 c-157 -2 -169 -1 -188 18 -19 19 -20 32 -20 265 0 135 2
245 5 245 3 0 13 -4 23 -10z m449 -206 c84 -38 300 -128 356 -149 l47 -18 0
-74 0 -73 -237 2 -238 3 -3 168 c-1 106 1 167 7 167 6 0 36 -12 68 -26z m803
-135 c0 -71 -3 -129 -6 -129 -46 0 -333 97 -534 180 -69 28 -133 54 -142 57
-10 3 -18 10 -18 15 0 5 137 8 350 7 l350 -2 0 -128z m-52 -145 c18 -4 31 -11
29 -18 -3 -8 -57 -11 -178 -11 l-174 0 -3 66 -3 66 148 -48 c81 -27 163 -52
181 -55z m-1006 -94 c-2 -19 -5 -36 -7 -38 -6 -6 -141 -6 -150 0 -8 5 -11 55
-6 76 1 2 38 2 84 0 l82 -3 -3 -35z m1006 3 l-3 -38 -82 -3 -83 -3 0 41 0 40
86 0 85 0 -3 -37z"/>
<path d="M498 1539 c-16 -9 -18 -26 -18 -122 0 -75 4 -117 12 -125 9 -9 129
-12 479 -12 l468 0 15 22 c12 16 16 47 16 115 0 146 47 133 -497 133 -293 0
-464 -4 -475 -11z m940 -126 l3 -103 -471 0 -470 0 0 98 c0 54 3 102 7 105 3
4 214 6 467 5 l461 -3 3 -102z"/>
<path d="M580 1410 c0 -27 5 -50 10 -50 6 0 10 9 10 20 0 14 7 20 24 20 28 0
42 26 25 46 -6 8 -24 14 -40 14 -28 0 -29 -2 -29 -50z"/>
<path d="M672 1410 l-1 -50 35 0 c19 0 34 5 34 10 0 6 -11 10 -25 10 -34 0
-32 28 3 33 l27 4 -27 2 c-35 1 -37 21 -3 21 14 0 25 5 25 10 0 6 -15 10 -34
10 l-34 0 0 -50z"/>
<path d="M760 1410 l0 -50 35 0 c19 0 35 5 35 10 0 6 -11 10 -25 10 -32 0 -34
27 -2 33 l22 4 -22 2 c-28 1 -31 21 -4 21 11 0 23 5 26 10 4 6 -8 10 -29 10
l-36 0 0 -50z"/>
<path d="M850 1410 c0 -27 5 -50 10 -50 6 0 10 12 10 28 l1 27 17 -27 c9 -16
23 -28 30 -28 10 0 8 8 -6 28 -18 24 -18 30 -6 46 21 29 5 34 -16 6 l-20 -25
0 23 c0 12 -4 22 -10 22 -5 0 -10 -22 -10 -50z"/>
<path d="M987 1413 c-16 -48 -14 -72 4 -40 13 22 35 22 48 0 17 -32 23 -5 9
39 -20 60 -42 60 -61 1z"/>
<path d="M1110 1411 c0 -49 1 -51 29 -51 39 0 51 18 42 60 -6 30 -11 35 -39
38 l-32 3 0 -50z m58 -18 c2 -8 -5 -13 -17 -13 -12 0 -21 6 -21 16 0 18 31 15
38 -3z"/>
<path d="M1210 1415 c0 -40 3 -45 27 -51 33 -9 53 15 53 63 0 24 -5 33 -16 33
-12 0 -15 -6 -10 -24 7 -30 -2 -56 -20 -56 -10 0 -14 12 -14 40 0 22 -4 40
-10 40 -5 0 -10 -20 -10 -45z"/>
<path d="M1310 1436 c0 -17 7 -26 25 -30 14 -4 25 -11 25 -17 0 -7 -11 -9 -25
-7 -14 3 -25 2 -25 -3 0 -14 21 -21 46 -15 33 9 32 43 -1 52 -14 3 -25 11 -25
16 0 6 9 8 20 5 13 -3 20 0 20 9 0 9 -11 14 -30 14 -25 0 -30 -4 -30 -24z"/>
<path d="M421 464 c-42 -35 -43 -84 -2 -125 33 -32 58 -36 100 -14 32 16 41
33 41 78 0 37 -6 47 -40 70 -34 24 -63 21 -99 -9z m105 -29 c34 -52 -14 -110
-74 -89 -64 23 -46 114 23 114 26 0 39 -6 51 -25z"/>
<path d="M797 323 c-3 -7 -2 -52 2 -83 1 -7 61 -10 174 -8 l172 3 3 48 3 47
-175 0 c-96 0 -177 -3 -179 -7z m323 -38 l0 -25 -150 0 -150 0 0 25 0 25 150
0 150 0 0 -25z"/>
<path d="M1411 464 c-78 -65 8 -186 98 -139 32 16 41 33 41 75 0 42 -9 59 -41
75 -40 21 -63 19 -98 -11z m105 -29 c34 -52 -14 -110 -74 -89 -64 23 -46 114
23 114 26 0 39 -6 51 -25z"/>
</g>
</svg>
